<?xml version="1.0" standalone="no"?>
<!DOCTYPE svg PUBLIC "-//W3C//DTD SVG 20010904//EN"
 "http://www.w3.org/TR/2001/REC-SVG-20010904/DTD/svg10.dtd">
<svg version="1.0" xmlns="http://www.w3.org/2000/svg"
 width="1000.000000pt" height="1000.000000pt" viewBox="0 0 1000.000000 1000.000000"
 preserveAspectRatio="xMidYMid meet">
<metadata>
Created by potrace 1.11, written by Peter Selinger 2001-2013
</metadata>
<g transform="translate(0.000000,1000.000000) scale(0.100000,-0.100000)"
fill="#000000" stroke="none">
<path d="M6574 8151 c-2 -2 -39 -6 -81 -8 -87 -3 -178 -10 -238 -18 -22 -2
-60 -7 -85 -9 -55 -6 -299 -45 -320 -51 -8 -2 -37 -7 -65 -11 -27 -3 -54 -9
-59 -12 -5 -3 -23 -7 -40 -8 -45 -5 -60 -9 -73 -17 -7 -5 -17 -5 -23 -2 -5 3
-16 3 -22 -2 -7 -4 -24 -9 -38 -11 -49 -6 -75 -10 -75 -12 0 -2 -9 -4 -20 -6
-11 -1 -31 -6 -45 -9 -14 -4 -45 -11 -70 -16 -25 -4 -72 -15 -105 -24 -33 -9
-67 -16 -75 -17 -8 0 -40 -7 -70 -15 -30 -8 -66 -16 -80 -18 -14 -2 -25 -4
-25 -5 0 -2 -33 -10 -60 -14 -11 -2 -20 -4 -20 -5 0 -2 -7 -4 -15 -6 -8 -1
-51 -10 -95 -20 -44 -9 -91 -19 -104 -21 -13 -3 -32 -9 -41 -14 -10 -5 -20 -7
-22 -4 -3 2 -25 0 -49 -6 -45 -11 -54 -13 -123 -25 -21 -4 -47 -9 -57 -11 -51
-11 -66 -14 -104 -20 -69 -11 -68 -11 -200 -33 -102 -17 -287 -41 -360 -46
-38 -3 -83 -8 -100 -12 -16 -3 -55 -7 -85 -8 -30 -1 -55 -3 -55 -5 0 -2 -176
-9 -425 -15 -159 -4 -235 -9 -235 -15 0 -3 -39 -12 -57 -13 -10 -1 -18 -5 -18
-9 0 -4 -6 -8 -14 -8 -33 0 -114 -65 -117 -94 -1 -6 -3 -29 -5 -50 -2 -22 -6
-46 -8 -53 -3 -7 -1 -15 5 -18 5 -4 7 -10 5 -14 -6 -9 -7 -47 -5 -196 0 -60 0
-114 -1 -120 -1 -5 -2 -12 -1 -15 16 -47 16 -1801 0 -1908 -1 -4 0 -11 1 -17
3 -14 2 -61 -4 -195 -3 -63 -10 -239 -16 -390 -6 -151 -13 -286 -16 -300 -4
-14 -8 -65 -10 -115 -2 -49 -5 -105 -7 -123 -2 -17 0 -36 3 -42 3 -5 65 14
145 46 77 30 147 57 155 59 8 2 16 4 18 5 1 2 5 3 10 4 4 1 16 7 27 13 11 6
25 12 30 13 20 4 60 20 77 30 10 6 23 10 30 10 7 0 25 6 39 14 31 16 120 46
133 45 5 0 12 4 15 10 4 6 16 12 26 14 11 2 31 9 45 14 95 41 153 63 166 63 8
0 14 4 14 10 0 5 3 9 8 8 10 -3 85 23 100 35 6 5 12 7 12 3 0 -4 10 0 23 8 12
8 37 17 54 21 18 4 36 12 40 18 5 7 9 185 10 397 2 212 3 390 3 395 0 6 -1 32
-2 58 -2 27 0 53 3 59 4 6 4 21 -1 32 -9 25 7 44 35 40 10 -2 24 0 29 4 6 3
20 7 31 9 41 7 51 9 63 17 6 4 17 4 22 1 6 -4 17 -2 24 4 7 6 26 13 42 15 16
2 36 6 44 9 8 4 52 15 97 27 46 11 93 24 105 29 50 20 64 24 76 22 6 -1 12 3
12 9 0 7 6 10 12 8 7 -3 39 6 71 19 32 13 62 21 67 18 6 -4 10 -2 10 3 0 5 29
17 65 27 36 11 65 23 65 28 0 4 4 6 8 3 5 -3 20 1 35 9 14 7 28 11 31 7 3 -3
6 -1 6 5 0 5 6 10 13 11 25 2 43 8 136 49 29 12 59 23 66 23 7 0 18 7 25 15 7
8 16 12 21 10 4 -3 16 -1 26 4 44 24 133 59 133 53 0 -4 4 -2 8 3 6 9 199 92
227 98 6 1 13 6 16 10 3 4 16 9 27 10 12 1 22 5 22 9 0 4 6 8 13 8 7 0 44 13
82 29 70 28 99 39 113 42 4 1 32 12 62 26 30 13 63 25 73 26 9 1 17 5 17 9 0
4 3 7 8 7 4 -1 10 0 15 1 4 1 10 3 15 5 4 1 14 4 22 8 15 6 160 50 170 52 3 0
21 6 40 13 19 6 46 13 60 16 14 3 36 8 50 11 14 4 34 8 45 9 11 0 25 4 30 8 6
3 26 9 45 12 148 23 182 27 186 23 3 -3 21 -1 40 3 18 4 34 5 34 1 0 -3 40 -5
89 -4 49 1 106 -3 127 -8 22 -5 47 -11 57 -14 47 -11 129 -57 166 -93 38 -37
75 -102 88 -155 9 -40 10 -182 0 -194 -5 -7 -7 -13 -3 -13 8 0 -32 -105 -57
-149 -58 -101 -248 -298 -375 -386 -39 -27 -71 -53 -72 -57 0 -5 -6 -8 -14 -8
-8 0 -17 -7 -20 -16 -4 -9 -9 -14 -12 -11 -3 2 -55 -31 -115 -74 -61 -43 -117
-79 -125 -79 -8 0 -22 -4 -32 -10 -22 -12 -68 -30 -162 -65 -41 -15 -91 -35
-110 -43 -19 -8 -39 -16 -45 -16 -5 -1 -27 -9 -49 -19 -21 -9 -44 -17 -52 -17
-7 0 -16 -5 -19 -11 -4 -6 -13 -8 -21 -5 -8 3 -14 2 -14 -3 0 -5 -20 -15 -45
-22 -25 -7 -45 -17 -45 -22 0 -4 -4 -5 -10 -2 -5 3 -10 1 -10 -5 0 -6 -4 -8
-10 -5 -5 3 -20 0 -32 -7 -13 -7 -29 -11 -35 -10 -7 2 -13 -1 -13 -6 0 -10
-48 -27 -64 -23 -4 1 -13 -3 -20 -8 -6 -5 -58 -27 -116 -49 -58 -22 -114 -43
-125 -48 -11 -4 -22 -8 -25 -9 -3 -1 -23 -9 -44 -18 -22 -10 -50 -20 -63 -23
-13 -4 -26 -10 -29 -15 -3 -5 -14 -9 -25 -9 -10 0 -19 -5 -19 -11 0 -5 -4 -7
-10 -4 -5 3 -22 -1 -37 -8 -33 -17 -74 -8 -51 10 14 12 124 73 213 119 28 14
77 40 110 58 148 80 242 131 270 144 17 9 32 18 35 21 3 3 34 21 70 39 36 18
106 55 155 82 50 27 130 70 179 96 112 58 130 68 136 75 6 7 33 17 41 15 4 0
15 6 25 15 11 9 45 29 77 44 31 14 57 31 57 37 0 6 -6 6 -15 -2 -8 -7 -15 -10
-15 -6 0 4 -13 0 -30 -9 -16 -8 -31 -15 -32 -14 -2 1 -20 -6 -42 -15 -21 -9
-40 -16 -42 -16 -1 0 -15 -5 -31 -12 -15 -6 -30 -12 -33 -13 -6 -2 -58 -23
-80 -32 -8 -3 -19 -7 -25 -9 -5 -1 -23 -8 -40 -15 -16 -6 -34 -13 -40 -15 -5
-1 -28 -10 -50 -19 -67 -29 -90 -38 -95 -39 -3 -1 -18 -7 -35 -13 -63 -26 -90
-36 -95 -37 -3 -1 -32 -12 -65 -25 -33 -13 -85 -33 -115 -45 -30 -11 -57 -24
-58 -29 -2 -4 -7 -5 -12 -2 -5 3 -37 -7 -72 -21 -111 -46 -122 -51 -188 -74
-36 -13 -69 -26 -75 -30 -5 -4 -28 -13 -50 -20 -22 -7 -46 -17 -52 -23 -7 -5
-13 -7 -13 -3 0 4 -18 -3 -40 -14 -22 -11 -40 -18 -40 -16 0 3 -12 -1 -27 -9
-15 -8 -30 -12 -35 -9 -4 3 -8 0 -8 -5 0 -6 -8 -11 -17 -11 -10 0 -31 -7 -47
-15 -15 -8 -35 -15 -42 -15 -8 0 -14 -4 -14 -10 0 -5 -3 -9 -7 -8 -14 4 -118
-35 -125 -46 -4 -6 -8 -7 -8 -2 0 5 -6 4 -12 -2 -7 -6 -17 -10 -21 -10 -7 0
-95 -32 -142 -53 -60 -25 -95 -37 -95 -32 0 3 -10 -1 -22 -9 -13 -8 -88 -39
-168 -68 -80 -30 -147 -57 -150 -60 -3 -3 -11 -6 -19 -8 -25 -5 -196 -74 -207
-83 -6 -5 -13 -6 -16 -3 -4 3 -20 -2 -38 -11 -18 -9 -39 -18 -48 -20 -10 -2
-43 -15 -75 -29 -31 -14 -59 -26 -62 -26 -3 0 -21 -7 -41 -15 -20 -8 -53 -20
-75 -26 -21 -7 -39 -16 -39 -21 0 -4 -3 -7 -7 -7 -5 1 -11 0 -15 -1 -5 -1 -11
-3 -15 -4 -12 -3 -125 -45 -148 -56 -11 -5 -60 -24 -110 -43 -49 -19 -157 -60
-240 -92 -82 -31 -163 -63 -180 -70 -49 -20 -100 -40 -105 -41 -3 0 -18 -6
-35 -13 -73 -29 -221 -85 -227 -87 -5 -1 -10 -3 -13 -4 -3 -1 -8 -3 -12 -4 -5
-1 -13 -4 -19 -8 -6 -4 -37 -17 -70 -29 -32 -12 -70 -26 -84 -32 -14 -6 -27
-11 -30 -11 -3 -1 -39 -15 -80 -31 -41 -16 -77 -30 -80 -31 -3 0 -18 -6 -35
-13 -16 -6 -55 -21 -85 -32 -30 -12 -64 -25 -75 -30 -29 -13 -69 -27 -75 -26
-3 0 -15 -5 -28 -12 -21 -11 -21 -13 -7 -41 17 -33 95 -100 117 -100 7 0 18
-4 23 -9 10 -10 38 -17 105 -29 80 -13 312 -7 405 12 31 6 109 20 120 21 6 1
15 -2 21 -7 6 -4 24 -10 40 -12 16 -2 36 -6 44 -9 18 -7 298 -2 355 6 44 6 96
15 135 23 14 3 32 6 40 7 9 2 20 5 25 8 6 3 19 5 30 5 11 -1 22 1 25 4 3 3 61
22 130 42 69 20 149 45 178 56 28 11 52 18 52 16 0 -2 18 5 40 16 22 11 40 18
40 14 0 -3 11 1 25 10 13 9 30 16 37 16 7 0 33 10 58 22 25 11 50 22 55 24 6
1 24 8 40 15 17 7 32 13 35 14 3 1 39 18 80 37 41 19 116 54 165 77 50 22 101
48 115 56 14 8 54 30 90 47 36 18 67 36 70 39 3 4 16 10 30 14 14 4 36 15 50
25 33 23 232 129 245 130 6 1 17 8 25 15 8 8 44 29 80 48 100 51 230 121 280
150 25 14 88 47 140 73 52 26 103 54 113 62 10 9 23 17 30 18 7 1 32 13 57 28
25 14 70 38 100 53 30 14 57 29 60 32 12 15 147 80 163 77 29 -4 28 -13 -4
-37 -17 -13 -40 -32 -50 -41 -11 -10 -21 -18 -24 -18 -6 0 -95 -63 -157 -111
-20 -16 -42 -29 -47 -29 -6 0 -11 -3 -11 -8 0 -4 -36 -32 -80 -61 -44 -30 -80
-58 -80 -63 0 -4 -6 -8 -12 -8 -11 0 -25 -10 -84 -59 -6 -5 -20 -12 -32 -15
-12 -4 -20 -12 -17 -17 4 -5 19 -2 35 6 17 9 31 15 32 15 4 -2 38 10 63 20 11
5 47 18 80 29 33 10 110 38 170 61 61 23 115 43 120 44 6 2 19 7 30 11 11 5
43 17 70 27 49 18 61 23 120 48 17 8 35 14 40 16 20 4 398 164 523 220 28 13
54 24 57 23 3 0 22 9 43 19 20 11 62 31 92 45 30 14 96 44 145 68 50 24 93 42
98 41 4 -1 7 3 7 8 0 6 5 10 11 10 11 0 360 170 369 180 10 11 133 70 146 70
8 0 14 4 14 8 0 5 21 20 48 33 26 13 85 46 132 74 47 28 92 54 100 58 40 20
175 109 178 119 2 4 9 8 15 8 7 0 23 9 37 20 14 11 61 48 105 82 126 97 296
275 287 301 -1 4 2 7 8 7 5 0 21 27 37 60 15 33 31 60 36 60 4 0 5 5 2 10 -4
6 -1 17 5 25 7 8 10 15 6 15 -3 0 -1 12 5 28 10 26 19 98 19 152 0 37 -7 81
-23 155 -2 6 -6 16 -10 23 -5 6 -5 17 -2 22 3 6 2 10 -4 10 -5 0 -13 10 -17
23 -29 94 -182 256 -304 323 -19 10 -42 24 -50 30 -19 14 -196 85 -207 83 -4
-1 -15 1 -23 4 -61 26 -163 39 -345 44 -191 4 -276 -2 -440 -33 -16 -3 -38 -6
-47 -6 -10 1 -18 -2 -18 -6 0 -4 -16 -8 -36 -9 -20 -1 -41 -6 -47 -11 -7 -4
-21 -8 -32 -8 -44 2 -15 31 90 91 61 35 115 68 121 74 7 5 15 7 18 4 3 -4 6
-1 6 5 0 7 5 12 10 12 10 0 171 97 195 118 6 4 39 28 75 52 57 38 118 83 157
115 6 6 29 24 50 40 65 52 153 139 153 152 0 7 4 13 9 13 4 0 21 19 37 43 16
23 31 44 34 47 3 3 19 34 34 70 94 216 -10 428 -264 538 -85 37 -105 44 -130
49 -14 2 -43 9 -65 14 -22 6 -47 10 -55 10 -8 1 -22 3 -30 6 -42 15 -483 36
-496 24z m-374 -504 c8 -2 33 -7 55 -12 97 -19 189 -81 220 -149 39 -88 39
-200 -1 -277 -8 -16 -14 -30 -13 -31 5 -9 -43 -98 -53 -98 -6 0 -8 -3 -5 -6
17 -17 -241 -289 -300 -317 -13 -5 -23 -17 -23 -24 0 -8 -4 -12 -9 -9 -5 3
-20 -4 -33 -17 -39 -34 -68 -57 -73 -57 -7 0 -140 -94 -147 -105 -5 -6 -8 -6
-8 0 0 7 -3 7 -8 0 -8 -12 -23 -21 -112 -71 -36 -21 -73 -44 -82 -52 -10 -8
-18 -11 -18 -6 0 5 -4 4 -8 -1 -8 -11 -53 -33 -63 -31 -4 0 -15 -6 -25 -15
-19 -17 -109 -61 -294 -143 -102 -46 -132 -59 -140 -60 -5 -1 -110 -43 -175
-71 -16 -7 -48 -18 -70 -25 -22 -7 -44 -16 -50 -20 -5 -4 -19 -10 -30 -13 -11
-3 -57 -19 -102 -35 -46 -17 -83 -28 -83 -25 0 3 -6 1 -12 -5 -11 -9 -218 -79
-258 -87 -8 -2 -27 -8 -43 -14 -27 -10 -66 -20 -97 -25 -9 -1 -21 -5 -28 -10
-6 -4 -16 -5 -21 -2 -5 4 -11 2 -13 -3 -1 -5 -16 -11 -33 -14 -16 -3 -59 -13
-95 -22 -67 -16 -84 -20 -135 -29 -16 -3 -40 -7 -52 -10 -13 -3 -26 0 -29 6
-4 6 -8 182 -9 392 -1 210 -3 381 -5 381 -1 0 -4 126 -6 280 -2 154 -5 293 -5
308 -1 15 1 31 5 34 5 5 92 21 216 39 19 2 44 7 55 9 11 2 29 6 40 8 11 2 36
7 55 11 19 3 46 9 60 12 54 11 76 16 95 20 11 2 38 8 60 13 22 5 69 16 105 24
36 8 101 25 145 36 108 29 112 30 138 37 12 3 29 7 37 9 8 1 22 5 30 8 20 8
409 118 435 122 26 5 48 11 115 30 30 9 66 18 80 21 44 8 165 35 180 41 8 3
26 7 40 9 14 2 40 6 57 9 97 16 131 21 228 30 32 3 61 8 63 9 4 5 231 -2 252
-7z"/>
<path d="M6325 5240 c-4 -6 -11 -8 -16 -5 -5 4 -9 1 -9 -4 0 -15 11 -13 34 4
11 8 15 15 9 15 -7 0 -15 -5 -18 -10z"/>
<path d="M1115 2686 c-91 -32 -70 -108 34 -120 17 -2 33 -1 37 3 3 3 9 6 12 6
19 1 50 27 55 45 5 20 -23 57 -45 60 -4 1 -20 5 -35 9 -16 4 -41 3 -58 -3z"/>
<path d="M4806 2693 c-2 -2 -19 -6 -38 -8 -18 -2 -35 -4 -38 -6 -3 -1 -9 -3
-15 -3 -22 -3 -102 -47 -127 -71 -25 -23 -59 -76 -58 -90 0 -3 -1 -6 -1 -7 -1
-2 -3 -34 -5 -73 -9 -174 -10 -245 -5 -245 3 0 6 -28 7 -63 2 -106 12 -134 66
-182 31 -29 118 -72 118 -59 0 4 6 2 13 -3 18 -13 69 -18 179 -17 56 1 103 6
111 12 8 7 17 9 20 5 4 -3 7 -1 7 6 0 7 4 10 9 7 5 -3 22 7 39 23 22 21 27 32
19 40 -16 16 -27 14 -46 -7 -60 -69 -242 -75 -331 -12 -29 21 -33 28 -46 90
-12 60 -23 370 -13 370 3 0 6 20 6 44 2 119 40 184 121 205 67 18 168 15 205
-6 4 -3 -6 -17 -23 -33 -30 -28 -31 -30 -15 -59 8 -17 19 -30 23 -29 4 0 15
-2 25 -7 27 -12 87 4 113 30 22 22 23 27 11 56 -15 37 -76 74 -142 85 -34 6
-184 11 -189 7z"/>
<path d="M134 2681 c-13 -13 -1 -31 21 -31 43 0 48 -32 51 -330 3 -303 -4
-376 -37 -402 -11 -10 -25 -16 -29 -13 -4 3 -10 -2 -14 -10 -3 -8 -2 -16 2
-18 9 -6 499 0 537 6 50 7 131 47 160 77 49 51 68 140 53 245 -2 11 -9 26 -15
33 -7 7 -13 19 -13 25 -1 16 -89 69 -117 71 -13 0 -23 4 -23 9 0 4 -9 7 -20 7
-29 0 -25 15 18 58 34 34 38 42 36 87 -1 59 -10 90 -33 117 -17 21 -80 56
-115 65 -26 6 -455 10 -462 4z m383 -43 c55 -25 73 -57 73 -132 0 -111 -39
-144 -172 -144 l-86 -1 4 47 c3 26 6 81 8 123 5 108 13 119 86 119 32 0 72 -6
87 -12z m73 -311 c14 -3 25 -5 25 -6 0 -2 7 -4 16 -6 25 -5 69 -36 64 -45 -3
-5 -1 -11 4 -14 19 -12 35 -144 22 -179 -5 -13 -6 -30 -1 -37 23 -37 -59 -111
-140 -127 -48 -9 -185 -9 -207 0 -28 13 -30 22 -31 178 -1 74 -4 153 -8 176
-11 70 -10 71 118 67 62 -1 124 -5 138 -7z"/>
<path d="M2259 2460 c-152 -44 -159 -131 -17 -194 29 -13 75 -31 101 -41 101
-36 134 -95 77 -136 -30 -23 -118 -41 -126 -27 -4 6 -17 8 -30 5 -13 -2 -29 2
-35 9 -6 8 -16 14 -21 14 -6 0 -26 13 -44 30 -45 39 -75 31 -42 -12 28 -36 82
-67 128 -74 50 -8 119 -11 124 -6 3 3 21 6 38 8 93 6 168 67 168 135 0 53 -38
89 -110 104 -8 2 -17 4 -20 6 -3 1 -9 3 -15 4 -5 1 -23 8 -40 15 -16 7 -46 20
-65 28 -63 27 -74 61 -31 90 52 36 160 12 184 -40 9 -20 19 -28 38 -28 26 0
26 2 25 58 -1 54 -2 57 -27 60 -20 2 -28 -2 -32 -18 -5 -21 -6 -21 -33 -4 -29
20 -147 28 -195 14z"/>
<path d="M2915 2459 c-16 -6 -38 -12 -48 -14 -42 -9 -90 -50 -107 -89 -19 -44
-25 -162 -10 -200 10 -27 64 -86 79 -86 6 0 11 -5 11 -12 0 -6 3 -9 6 -5 3 3
18 1 33 -5 61 -24 192 -27 229 -4 7 4 12 4 12 1 0 -4 13 3 29 14 16 12 33 21
38 21 5 0 16 13 26 29 17 29 17 29 -5 24 -13 -3 -28 -12 -34 -19 -45 -55 -218
-61 -270 -10 -11 11 -17 84 -15 161 4 120 14 147 58 163 40 13 133 8 144 -9 6
-10 3 -15 -7 -17 -25 -6 -54 -35 -54 -54 0 -20 58 -61 77 -53 7 2 15 0 18 -5
4 -6 13 -6 23 -1 9 5 29 14 44 21 72 34 24 123 -78 146 -50 11 -168 13 -199 3z"/>
<path d="M3589 2466 c-2 -2 -18 -6 -34 -9 -53 -8 -123 -46 -146 -78 -30 -42
-40 -189 -15 -240 13 -28 77 -86 88 -79 2 1 19 -4 38 -12 19 -8 43 -14 52 -12
10 1 20 -1 23 -6 2 -4 26 -6 52 -3 27 2 55 4 63 5 8 0 21 5 28 11 6 5 12 7 12
3 0 -13 81 36 110 66 30 31 46 83 37 118 -3 11 -2 22 3 25 9 6 -3 70 -20 106
-6 14 -32 39 -57 55 -43 27 -57 32 -95 38 -10 1 -21 5 -24 9 -8 7 -108 10
-115 3z m84 -35 c25 -1 70 -49 63 -66 -3 -8 -2 -16 2 -19 6 -4 8 -191 2 -191
-1 0 -3 -13 -5 -29 -6 -47 -28 -61 -95 -61 -67 0 -95 18 -105 70 -8 44 -6 205
3 240 9 33 58 63 96 59 11 -1 29 -3 39 -3z"/>
<path d="M5320 2455 c-30 -9 -61 -22 -70 -30 -9 -8 -21 -15 -27 -15 -11 0 -44
-45 -47 -64 -1 -6 -4 -15 -8 -21 -3 -5 -5 -30 -3 -55 1 -25 -2 -53 -7 -62 -5
-10 -4 -19 2 -23 5 -3 7 -12 3 -20 -3 -8 0 -15 6 -15 6 0 11 -7 11 -15 0 -17
49 -65 67 -65 7 0 13 -5 13 -12 0 -6 3 -9 6 -5 3 3 18 1 33 -5 63 -25 192 -27
229 -5 6 5 17 5 22 2 6 -3 10 -2 10 3 0 5 14 15 30 22 28 11 101 90 85 90 -4
0 -3 6 1 13 9 11 10 115 1 147 -15 57 -88 122 -153 135 -69 14 -151 14 -204 0z
m167 -36 c40 -21 51 -128 31 -306 -3 -31 -40 -48 -100 -48 -52 0 -63 3 -82 26
-21 24 -23 37 -23 142 0 64 2 128 5 142 9 50 108 76 169 44z"/>
<path d="M6110 2466 c-3 -2 -18 -7 -34 -10 -15 -3 -39 -12 -52 -20 -23 -16
-53 -12 -66 7 -3 6 -35 10 -70 11 -50 1 -63 -2 -63 -14 0 -8 7 -15 15 -15 32
-1 60 -26 61 -53 9 -247 -2 -302 -58 -302 -12 0 -23 -3 -23 -7 1 -24 24 -29
150 -28 116 0 135 2 138 16 2 11 -7 18 -28 22 -22 5 -30 12 -31 29 -1 13 -3
46 -5 73 -2 28 -1 83 2 124 5 60 10 78 30 98 13 13 28 22 33 18 5 -3 12 -1 16
4 11 19 89 2 110 -24 19 -22 21 -38 20 -153 -1 -135 -11 -172 -46 -172 -14 0
-19 -5 -17 -17 3 -15 17 -18 118 -18 63 -1 121 1 128 3 18 6 14 32 -5 32 -44
1 -55 36 -54 180 1 107 5 124 33 151 22 20 36 25 70 23 90 -4 117 -30 124
-118 12 -142 -2 -222 -42 -232 -13 -3 -24 -10 -24 -15 0 -5 -1 -12 -2 -16 -2
-4 61 -8 140 -8 111 0 142 3 142 13 0 7 -14 18 -30 24 -18 6 -32 18 -34 31 -9
51 -11 99 -5 192 3 63 -21 125 -48 125 -7 0 -13 5 -13 10 0 6 -3 9 -7 8 -5 -1
-21 5 -38 13 -19 8 -66 13 -125 14 -80 0 -103 -4 -142 -23 l-48 -24 -35 22
c-25 15 -58 24 -108 27 -40 3 -74 2 -77 -1z"/>
<path d="M7191 2458 c-18 -5 -45 -16 -58 -25 -23 -15 -27 -15 -54 1 -16 9 -56
19 -89 22 -57 6 -60 5 -60 -16 0 -16 4 -20 19 -15 23 7 51 -18 52 -48 0 -12 2
-31 4 -42 5 -24 7 -127 6 -301 -1 -138 -8 -161 -49 -169 -12 -2 -27 -7 -32
-10 -28 -17 14 -24 150 -23 122 0 150 3 150 14 0 12 -18 19 -42 15 -4 0 -15
10 -26 24 -15 18 -19 41 -20 99 -1 77 4 84 43 56 6 -4 20 -6 33 -5 12 1 22 -1
22 -5 0 -15 153 5 158 21 2 5 7 7 11 4 14 -8 80 59 97 100 17 42 22 124 9 166
-19 62 -98 129 -159 135 -17 1 -31 3 -31 4 0 8 -107 6 -134 -2z m133 -39 c32
-15 38 -35 42 -158 5 -164 -25 -209 -129 -194 -40 5 -82 37 -72 54 3 4 2 10
-3 13 -4 2 -6 31 -5 63 4 70 4 69 0 116 -2 21 0 40 5 43 5 3 6 10 2 15 -7 12
14 39 41 49 29 13 90 12 119 -1z"/>
<path d="M7843 2459 c-29 -6 -53 -15 -53 -20 0 -6 -4 -8 -10 -4 -5 3 -25 -10
-45 -29 -28 -28 -35 -41 -31 -62 6 -31 11 -36 46 -50 22 -9 59 -11 95 -5 22 4
48 32 50 55 3 20 -5 30 -33 46 -34 20 -35 23 -17 33 11 6 49 11 84 11 57 0 66
-3 87 -27 15 -17 24 -41 24 -60 0 -29 -5 -36 -52 -59 -29 -15 -87 -34 -128
-42 -146 -31 -188 -54 -197 -108 -4 -31 -1 -41 21 -61 66 -61 291 -67 358 -9
16 13 22 12 56 -10 51 -34 151 -36 182 -3 21 22 35 64 22 66 -42 5 -52 4 -53
-3 -1 -4 -2 -13 -3 -19 0 -7 -9 -17 -19 -23 -33 -20 -48 17 -47 114 1 47 1 87
0 90 -1 3 -3 23 -6 45 -12 105 -51 132 -209 140 -38 2 -94 -1 -122 -6z m202
-259 c-1 -66 -5 -83 -21 -95 -46 -35 -127 -40 -184 -10 -29 15 -31 20 -26 48
4 17 12 35 19 38 6 4 23 17 36 28 13 12 30 22 38 22 17 2 23 4 56 17 16 7 33
12 38 12 5 0 9 5 9 10 0 6 9 10 19 10 17 0 19 -7 16 -80z"/>
<path d="M8719 2466 c-2 -2 -21 -7 -42 -10 -21 -3 -48 -13 -62 -22 -20 -13
-28 -13 -47 -3 -51 29 -130 36 -147 15 -9 -11 -10 -16 -2 -17 6 -1 14 -3 19
-4 4 -2 17 -6 30 -10 25 -8 24 -4 24 -177 1 -126 -12 -168 -52 -168 -10 0 -21
-4 -24 -9 -13 -20 27 -27 154 -27 120 1 135 3 138 19 3 12 -3 17 -21 17 -46 0
-54 24 -52 150 2 63 5 123 7 134 7 28 47 66 72 68 61 4 73 3 96 -6 51 -21 64
-67 61 -206 -2 -92 -16 -133 -46 -138 -41 -7 -49 -12 -36 -25 8 -8 58 -12 155
-12 122 -1 143 1 141 14 -1 8 -16 19 -34 24 -22 5 -32 13 -30 25 1 9 0 19 -1
22 -2 3 -4 58 -5 123 -1 67 -7 128 -14 140 -27 50 -122 87 -224 87 -29 0 -56
-2 -58 -4z"/>
<path d="M1013 2446 c1 -6 17 -20 36 -31 22 -12 38 -31 43 -50 7 -28 5 -213
-3 -244 -7 -26 -33 -51 -54 -51 -13 0 -21 -7 -22 -18 -1 -16 11 -18 143 -17
152 0 182 10 124 40 -16 8 -34 24 -40 34 -5 11 -9 88 -8 183 l1 163 -111 1
c-78 1 -111 -2 -109 -10z"/>
<path d="M1457 2446 c-2 -6 0 -23 4 -38 5 -19 4 -28 -3 -28 -23 0 3 -14 28
-15 16 0 29 7 36 20 6 11 15 23 20 26 11 7 206 4 214 -3 3 -4 -6 -19 -21 -35
-14 -15 -33 -41 -42 -58 -8 -16 -32 -47 -53 -67 -21 -20 -44 -46 -50 -57 -6
-12 -15 -20 -20 -18 -13 3 -119 -113 -114 -126 5 -13 490 -17 510 -4 10 6 11
84 1 93 -1 1 -14 0 -29 -3 -19 -4 -28 -12 -28 -24 0 -10 -4 -21 -10 -24 -5 -3
-60 -7 -120 -7 -116 -1 -147 8 -113 33 10 8 31 30 47 49 16 19 76 86 135 149
58 62 106 121 106 130 0 14 -25 16 -247 17 -168 0 -249 -3 -251 -10z"/>
<path d="M9188 2438 c2 -10 9 -17 16 -16 16 3 56 -21 56 -34 0 -6 13 -32 29
-58 16 -27 27 -51 24 -54 -4 -3 -1 -6 5 -6 7 0 12 -9 12 -20 0 -11 5 -20 10
-20 6 0 10 -4 10 -8 0 -4 21 -48 48 -97 26 -50 47 -94 47 -100 -2 -44 -78
-153 -109 -156 -6 -1 -25 -3 -43 -5 -18 -2 -35 1 -38 6 -3 5 -12 7 -20 3 -27
-10 -16 6 15 22 17 9 30 13 30 10 0 -4 8 1 18 11 15 16 17 23 13 53 -3 25 -80
43 -130 30 -47 -12 -63 -59 -39 -110 16 -34 51 -50 123 -56 73 -6 134 9 175
43 28 24 120 193 120 221 0 7 5 13 10 13 6 0 10 8 10 18 0 10 5 23 12 30 7 7
9 12 5 12 -4 0 2 17 12 38 11 20 34 71 51 112 38 89 45 98 73 102 12 2 22 10
22 18 0 12 -19 15 -102 16 -82 1 -103 -1 -103 -12 0 -12 13 -19 23 -12 1 1 12
-4 24 -11 29 -15 25 -54 -13 -137 -15 -32 -27 -65 -27 -71 0 -7 -4 -13 -8 -13
-4 0 -9 -10 -11 -22 -4 -30 -25 -34 -33 -6 -4 13 -16 34 -25 48 -10 14 -18 28
-19 33 0 4 -8 24 -17 45 -9 20 -17 42 -18 49 -1 7 -5 16 -9 19 -21 21 4 60 38
59 11 0 20 7 20 15 0 13 -23 15 -146 16 -138 1 -146 0 -141 -18z"/>
</g>
</svg>
